<?xml version="1.0" standalone="no"?>
<!DOCTYPE svg PUBLIC "-//W3C//DTD SVG 1.1//EN" "http://www.w3.org/Graphics/SVG/1.1/DTD/svg11.dtd"><svg t="1679912370133"
  class="icon" viewBox="0 0 1024 1024" version="1.1" xmlns="http://www.w3.org/2000/svg" p-id="3132"
  xmlns:xlink="http://www.w3.org/1999/xlink" width="200" height="200">
  <path
    d="M144.384 471.2448c-0.8192 0-1.4336 0-2.2528-0.2048-5.5296-1.2288-9.0112-6.7584-7.7824-12.288 7.3728-32.768 25.8048-62.6688 52.224-83.968 26.624-21.504 60.2112-33.3824 94.6176-33.3824h587.5712L931.84 278.528c4.9152-4.9152 12.288-6.9632 19.2512-4.9152 6.7584 2.048 12.0832 7.5776 13.5168 14.336l22.1184 99.7376c1.8432 8.6016-1.2288 16.9984-8.192 22.1184-6.7584 5.12-15.5648 5.9392-23.1424 2.048l-0.4096-0.2048-54.6816-30.5152c-4.9152-2.6624-6.7584-9.0112-3.8912-13.9264 2.6624-4.9152 9.0112-6.7584 13.9264-3.8912l54.4768 30.3104c0.2048 0.2048 0.8192 0.2048 1.2288-0.2048 0.8192-0.6144 0.6144-1.2288 0.6144-1.6384l-21.7088-97.8944-67.584 67.584H281.1904c-60.416 0-113.664 42.5984-126.7712 101.376-1.024 5.12-5.3248 8.3968-10.0352 8.3968zM106.7008 751.2064H39.936l63.2832-150.9376c2.2528-5.12 8.192-7.5776 13.312-5.5296 5.12 2.2528 7.5776 8.192 5.5296 13.312l-51.4048 122.6752h26.624l85.4016-96.4608c3.6864-4.3008 10.24-4.7104 14.5408-0.8192 4.3008 3.6864 4.7104 10.24 0.8192 14.5408l-91.3408 103.2192z"
    fill="#fff" class="icon-path" stroke="#1875F0" stroke-width="3" p-id="3133"></path>
  <path
    d="M136.6016 525.312c-6.3488 0-12.288-0.8192-17.408-2.2528-10.24-2.8672-18.0224-8.6016-22.528-16.384-2.6624-4.9152-1.024-11.264 3.8912-13.9264 4.9152-2.6624 11.264-1.024 13.9264 3.8912 1.6384 3.072 5.12 5.3248 10.0352 6.7584 16.1792 4.5056 41.984-1.4336 65.9456-14.9504 23.9616-13.7216 42.3936-32.768 46.8992-48.7424 1.4336-4.9152 1.2288-9.0112-0.6144-12.288-2.8672-4.9152-1.024-11.264 3.8912-13.9264 4.9152-2.8672 11.264-1.024 13.9264 3.8912 4.5056 7.7824 5.3248 17.408 2.4576 27.8528-5.9392 21.2992-27.648 44.8512-56.5248 61.2352-21.504 12.0832-44.6464 18.8416-63.8976 18.8416zM134.5536 591.4624c-36.2496 0-65.1264-13.5168-79.0528-38.2976-2.6624-4.9152-1.024-11.264 3.8912-13.9264 4.9152-2.6624 11.264-1.024 13.9264 3.8912 13.7216 24.3712 50.7904 33.792 94.6176 23.9616 5.5296-1.2288 11.0592 2.2528 12.288 7.7824 1.2288 5.5296-2.2528 11.0592-7.7824 12.288-13.1072 2.6624-25.8048 4.3008-37.888 4.3008z"
    fill="#fff" class="icon-path" stroke="#1875F0" stroke-width="3" p-id="3134"></path>
  <path
    d="M259.072 689.3568l-96.256-105.6768c-3.8912-4.096-3.4816-10.6496 0.6144-14.5408 4.096-3.8912 10.6496-3.4816 14.5408 0.6144l85.1968 93.3888 22.3232-12.9024c4.9152-2.8672 11.264-1.2288 13.9264 3.6864 2.8672 4.9152 1.2288 11.264-3.6864 13.9264l-36.6592 21.504zM279.7568 524.288c-2.4576 0-4.9152-0.8192-6.9632-2.6624-4.096-3.8912-4.5056-10.24-0.6144-14.5408 30.5152-32.9728 41.1648-69.8368 27.0336-94.0032-2.8672-4.9152-1.2288-11.0592 3.6864-13.9264 4.9152-2.8672 11.0592-1.2288 13.9264 3.6864 19.0464 32.5632 7.7824 77.824-29.4912 118.1696-2.048 2.2528-4.9152 3.2768-7.5776 3.2768z"
    fill="#fff" class="icon-path" stroke="#1875F0" stroke-width="3" p-id="3135"></path>
  <path
    d="M290.6112 669.696c-3.4816 0-6.9632-1.8432-8.8064-5.12-2.8672-4.9152-1.024-11.264 3.8912-13.9264l22.3232-12.6976-38.0928-120.6272c-1.6384-5.3248 1.2288-11.0592 6.7584-12.9024 5.3248-1.6384 11.0592 1.2288 12.9024 6.7584l43.008 136.3968-36.6592 20.8896c-1.8432 0.8192-3.6864 1.2288-5.3248 1.2288z"
    fill="#fff" class="icon-path" stroke="#1875F0" stroke-width="3" p-id="3136"></path>
  <path
    d="M905.0112 751.2064H837.632l-185.9584-170.3936-215.4496 43.008 63.6928 127.3856h-66.9696l-97.6896-79.6672c-4.3008-3.4816-5.12-10.0352-1.4336-14.336 3.4816-4.3008 10.0352-5.12 14.336-1.4336l91.9552 75.1616H466.944l-60.8256-121.6512 251.904-50.3808 187.5968 172.032h26.0096L768 525.7216V395.264c0-5.7344 4.5056-10.24 10.24-10.24s10.24 4.5056 10.24 10.24v125.3376l116.5312 230.6048z"
    fill="#fff" class="icon-path" stroke="#1875F0" stroke-width="3" p-id="3137"></path>
  <path
    d="M577.536 708.4032h-63.6928l49.9712-116.3264c2.2528-5.12 8.192-7.5776 13.5168-5.3248 5.12 2.2528 7.5776 8.192 5.3248 13.5168l-37.6832 87.6544h23.9616l77.0048-78.6432c3.8912-4.096 10.4448-4.096 14.5408-0.2048s4.096 10.4448 0.2048 14.5408L577.536 708.4032z"
    fill="#fff" class="icon-path" stroke="#1875F0" stroke-width="3" p-id="3138"></path>
</svg>